<?xml version="1.0" encoding="utf-8"?>
<!DOCTYPE svg PUBLIC "-//W3C//DTD SVG 1.1//EN" "http://www.w3.org/Graphics/SVG/1.1/DTD/svg11.dtd" [
	<!ENTITY ns_extend "http://ns.adobe.com/Extensibility/1.0/">
	<!ENTITY ns_ai "http://ns.adobe.com/AdobeIllustrator/10.0/">
	<!ENTITY ns_graphs "http://ns.adobe.com/Graphs/1.0/">
	<!ENTITY ns_vars "http://ns.adobe.com/Variables/1.0/">
	<!ENTITY ns_imrep "http://ns.adobe.com/ImageReplacement/1.0/">
	<!ENTITY ns_sfw "http://ns.adobe.com/SaveForWeb/1.0/">
	<!ENTITY ns_custom "http://ns.adobe.com/GenericCustomNamespace/1.0/">
	<!ENTITY ns_adobe_xpath "http://ns.adobe.com/XPath/1.0/">
]>
<svg version="1.1" xmlns:x="&ns_extend;" xmlns:i="&ns_ai;" xmlns:graph="&ns_graphs;"
	 xmlns="http://www.w3.org/2000/svg" xmlns:xlink="http://www.w3.org/1999/xlink" x="0px" y="0px" viewBox="0 0 150 150"
	 style="enable-background:new 0 0 150 150;" xml:space="preserve">
<style type="text/css">
	.st0{fill:#FFFFFF;}
	.st1{fill:#020203;}
</style>
<switch>
	<g i:extraneous="self">
		<g id="Laag_2">
			<circle class="st0" cx="74.78" cy="75.06" r="74.06"/>
		</g>
		<g id="Laag_1">
			<g>
				<path class="st1" d="M85.06,58.18L85.06,58.18l0.09-0.08c-0.87-1.05-1.63-1.95-1.87-3.12l-3.97-19.18
					c0.99-1.08,0.58-2.39,0.45-2.83l-0.03-0.11c-0.14-0.48-0.26-0.93-0.35-1.32c0.49-0.17,0.82-0.62,0.82-1.13
					c0-1.13-0.68-4.41-2.76-4.41h-7.06c-2.08,0-2.76,3.28-2.76,4.41c0,0.51,0.33,0.96,0.82,1.13c-0.09,0.4-0.2,0.84-0.34,1.32
					l-0.03,0.11c-0.15,0.48-0.54,1.75,0.45,2.83l-3.97,19.18c-0.24,1.17-0.99,2.07-1.87,3.12c-1.3,1.56-2.78,3.33-2.78,6.33v49.7
					c0,2.42,1.97,4.39,4.39,4.39h19.26c2.42,0,4.39-1.97,4.39-4.39v-49.7c0-3.01-1.48-4.77-2.78-6.33L85.06,58.18z M73.91,71.25
					c3.57,0,6.83,3.46,8.14,8.62H65.77C67.09,74.7,70.35,71.25,73.91,71.25z M76.98,36.54l2.42,11.66
					c-0.46,0.26-0.88,0.61-1.38,1.04c-1.04,0.89-2.21,1.9-4.11,1.9s-3.07-1.01-4.11-1.9c-0.48-0.41-0.91-0.77-1.38-1.04l2.42-11.66
					H76.98z M67.89,50.82C68,50.91,68.11,51,68.22,51.1c1.22,1.05,2.89,2.48,5.69,2.48c2.8,0,4.47-1.43,5.69-2.48
					c0.11-0.09,0.22-0.19,0.33-0.28l0.96,4.65c0.37,1.77,1.39,3,2.39,4.19c1.14,1.36,2.21,2.65,2.21,4.77v15.44h-0.94
					c-1.49-6.62-5.75-11.06-10.64-11.06c-4.89,0-9.15,4.44-10.64,11.06h-0.95V64.43c0-2.12,1.07-3.41,2.21-4.77l0-0.01
					c0.99-1.19,2.02-2.42,2.38-4.19L67.89,50.82z M70.29,29.19c0.1-0.32,0.22-0.6,0.32-0.75h6.6c0.1,0.15,0.22,0.43,0.33,0.75H70.29
					z M70.4,33.68l0.04-0.14c0.21-0.71,0.37-1.36,0.48-1.92h6c0.1,0.55,0.27,1.19,0.48,1.92l0.04,0.14c0.08,0.25,0.1,0.36,0.09,0.42
					H70.3C70.3,34.05,70.32,33.94,70.4,33.68z M73.91,98.33c-3.57,0-6.83-3.46-8.14-8.62h16.28C80.74,94.88,77.48,98.33,73.91,98.33
					z M84.56,89.71h0.94v24.42c0,1.08-0.88,1.96-1.96,1.96H64.28c-1.08,0-1.96-0.88-1.96-1.96V89.71h0.95
					c1.49,6.62,5.75,11.06,10.64,11.06C78.8,100.77,83.07,96.33,84.56,89.71z M62.33,87.27V82.3H85.5v4.97H62.33z"/>
				<path class="st1" d="M118.84,68.36l-2-2.79c0.19-0.31,0.28-0.6,0.28-0.89V63.9c0-1.12-0.71-1.81-1.86-1.81H95.77
					c-1.14,0-1.82,0.68-1.82,1.81l0,0.92c0,0.22,0,0.47,0.08,0.72l-2,2.79c-0.64,0.92-0.97,2.05-0.97,3.35v39.68
					c0,1.49,0.93,2.86,2.36,3.49l1.62,0.7v1.64c0,0.93,0.43,1.36,1.37,1.36h18.19c0.89,0,1.43-0.51,1.43-1.36v-1.73l1.51-0.61
					c1.48-0.65,2.48-2.05,2.48-3.49V71.68C120.01,70.33,119.37,69.13,118.84,68.36z M113.63,115.67v0.58H97.44v-0.58H113.63z
					 M105.37,102.12c-4.38,0-7.95-4.85-7.95-10.82c0-5.96,3.57-10.81,7.95-10.81s7.95,4.85,7.95,10.81
					C113.32,97.27,109.75,102.12,105.37,102.12z M93.45,96.61h2.45c1.65,4.76,5.36,7.82,9.46,7.82s7.81-3.07,9.46-7.82h2.78v14.75
					c0,0.54-0.44,1.11-1.06,1.39l-1.54,0.62H95.78l-1.33-0.53c-0.57-0.25-1-0.89-1-1.49V96.61z M95.89,86.04h-2.44V72.46h24.16
					v13.58h-2.77c-1.65-4.77-5.36-7.85-9.47-7.85S97.54,81.27,95.89,86.04z M95.02,91.31c0,1,0.09,2,0.28,2.99h-1.84v-5.96h1.84
					C95.11,89.33,95.02,90.33,95.02,91.31z M114.73,66.64l2.15,2.93c0.12,0.17,0.23,0.37,0.32,0.59H93.65
					c0.1-0.23,0.21-0.44,0.34-0.63l2.13-2.9H114.73z M96.21,64.82v-0.98h18.42v0.98H96.21z M115.71,91.31
					c0-0.99-0.09-1.98-0.27-2.96h2.17v5.96l-2.17,0.01C115.62,93.32,115.71,92.31,115.71,91.31z"/>
				<path class="st1" d="M53.6,65.58c0.19-0.31,0.28-0.6,0.28-0.89V63.9c0-1.12-0.71-1.81-1.86-1.81H32.53
					c-1.14,0-1.82,0.68-1.82,1.81l0,0.91c0,0.22-0.01,0.48,0.08,0.73l-2,2.79c-0.64,0.92-0.97,2.05-0.97,3.35v39.68
					c0,1.49,0.93,2.86,2.36,3.49l1.62,0.7v1.64c0,0.93,0.43,1.36,1.36,1.36h18.19c0.89,0,1.43-0.51,1.43-1.36v-1.73l1.51-0.61
					c1.48-0.65,2.48-2.05,2.48-3.49V71.68c0-1.35-0.64-2.55-1.17-3.31L53.6,65.58z M50.39,115.67v0.58H34.2v-0.58H50.39z
					 M30.22,108.37c4.44-0.49,8.72-3.78,12.86-6.96c3.75-2.88,7.63-5.86,11.3-6.42v16.36c0,0.54-0.44,1.11-1.07,1.39l-1.54,0.62
					H32.55l-1.33-0.53c-0.57-0.25-1-0.89-1-1.49V108.37z M54.33,92.56c-4.39,0.53-8.64,3.79-12.75,6.95
					c-3.74,2.88-7.61,5.85-11.25,6.42V91c4.39-0.53,8.64-3.79,12.76-6.95c3.74-2.87,7.61-5.84,11.25-6.42V92.56z M30.22,88.57V72.46
					h24.15v2.73c-4.42,0.51-8.68,3.79-12.8,6.95C37.8,85.05,33.9,88.04,30.22,88.57z M51.5,66.64l2.15,2.93
					c0.12,0.17,0.23,0.37,0.32,0.59H30.42c0.1-0.23,0.21-0.44,0.34-0.63l2.13-2.9H51.5z M51.39,63.84v0.98H32.97v-0.98H51.39z"/>
			</g>
		</g>
	</g>
</switch>
</svg>